HIERARCHY
ROOT Hips
{
	OFFSET 0.00000 0.00000 0.00000
	CHANNELS 6 Xposition Yposition Zposition Zrotation Yrotation Xrotation 
	JOINT LHipJoint
	{
		OFFSET 0 0 0
		CHANNELS 3 Zrotation Yrotation Xrotation
		JOINT LeftUpLeg
		{
			OFFSET 1.62964 -1.40469 0.78906
			CHANNELS 3 Zrotation Yrotation Xrotation
			JOINT LeftLeg
			{
				OFFSET 2.29640 -6.30932 0.00000
				CHANNELS 3 Zrotation Yrotation Xrotation
				JOINT LeftFoot
				{
					OFFSET 2.29451 -6.30412 0.00000
					CHANNELS 3 Zrotation Yrotation Xrotation
					JOINT LeftToeBase
					{
						OFFSET 0.03611 -0.09921 1.56387
						CHANNELS 3 Zrotation Yrotation Xrotation
						End Site
						{
							OFFSET 0.00000 -0.00000 0.80291
						}
					}
				}
			}
		}
	}
	JOINT RHipJoint
	{
		OFFSET 0 0 0
		CHANNELS 3 Zrotation Yrotation Xrotation
		JOINT RightUpLeg
		{
			OFFSET -1.73712 -1.40469 0.78906
			CHANNELS 3 Zrotation Yrotation Xrotation
			JOINT RightLeg
			{
				OFFSET -2.28137 -6.26801 0.00000
				CHANNELS 3 Zrotation Yrotation Xrotation
				JOINT RightFoot
				{
					OFFSET -2.28681 -6.28298 0.00000
					CHANNELS 3 Zrotation Yrotation Xrotation
					JOINT RightToeBase
					{
						OFFSET -0.15927 -0.43759 1.61103
						CHANNELS 3 Zrotation Yrotation Xrotation
						End Site
						{
							OFFSET -0.00000 -0.00000 0.84630
						}
					}
				}
			}
		}
	}
	JOINT LowerBack
	{
		OFFSET 0 0 0
		CHANNELS 3 Zrotation Yrotation Xrotation
		JOINT Spine
		{
			OFFSET -0.04227 2.04338 -0.00225
			CHANNELS 3 Zrotation Yrotation Xrotation
			JOINT Spine1
			{
				OFFSET -0.02148 2.04482 -0.04273
				CHANNELS 3 Zrotation Yrotation Xrotation
				JOINT Neck
				{
					OFFSET 0 0 0
					CHANNELS 3 Zrotation Yrotation Xrotation
					JOINT Neck1
					{
						OFFSET 0.09180 1.44629 0.19359
						CHANNELS 3 Zrotation Yrotation Xrotation
						JOINT Head
						{
							OFFSET 0.00887 1.40645 0.14750
							CHANNELS 3 Zrotation Yrotation Xrotation
							End Site
							{
								OFFSET -0.00669 1.50671 0.03707
							}
						}
					}
				}
				JOINT LeftShoulder
				{
					OFFSET 0 0 0
					CHANNELS 3 Zrotation Yrotation Xrotation
					JOINT LeftArm
					{
						OFFSET 2.17674 1.86763 -0.06520
						CHANNELS 3 Zrotation Yrotation Xrotation
						JOINT LeftForeArm
						{
							OFFSET 4.65776 -0.00000 0.00000
							CHANNELS 3 Zrotation Yrotation Xrotation
							JOINT LeftHand
							{
								OFFSET 3.55539 -0.00000 0.00000
								CHANNELS 3 Zrotation Yrotation Xrotation
								JOINT LeftFingerBase
								{
									OFFSET 0 0 0
									CHANNELS 3 Zrotation Yrotation Xrotation
									JOINT LeftHandIndex1
									{
										OFFSET 0.70726 -0.00000 0.00000
										CHANNELS 3 Zrotation Yrotation Xrotation
										End Site
										{
											OFFSET 0.57022 -0.00000 0.00000
										}
									}
								}
								JOINT LThumb
								{
									OFFSET 0 0 0
									CHANNELS 3 Zrotation Yrotation Xrotation
									End Site
									{
										OFFSET 0.57892 -0.00000 0.57892
									}
								}
							}
						}
					}
				}
				JOINT RightShoulder
				{
					OFFSET 0 0 0
					CHANNELS 3 Zrotation Yrotation Xrotation
					JOINT RightArm
					{
						OFFSET -2.80694 1.55459 -0.32496
						CHANNELS 3 Zrotation Yrotation Xrotation
						JOINT RightForeArm
						{
							OFFSET -4.71925 -0.00000 -0.00000
							CHANNELS 3 Zrotation Yrotation Xrotation
							JOINT RightHand
							{
								OFFSET -3.56990 -0.00000 0.00000
								CHANNELS 3 Zrotation Yrotation Xrotation
								JOINT RightFingerBase
								{
									OFFSET 0 0 0
									CHANNELS 3 Zrotation Yrotation Xrotation
									JOINT RightHandIndex1
									{
										OFFSET -0.50776 -0.00000 0.00000
										CHANNELS 3 Zrotation Yrotation Xrotation
										End Site
										{
											OFFSET -0.40937 -0.00000 0.00000
										}
									}
								}
								JOINT RThumb
								{
									OFFSET 0 0 0
									CHANNELS 3 Zrotation Yrotation Xrotation
									End Site
									{
										OFFSET -0.41562 -0.00000 0.41562
									}
								}
							}
						}
					}
				}
			}
		}
	}
}
MOTION
Frames: 15
Frame Time: .0083333
20.6565 15.6553 -0.8500 176.9270 -7.3729 -159.5550 0.0000 0.0000 0.0000 -24.2964 -15.1975 -4.3752 1.6223 8.0307 22.8072 0.2405 -11.4185 -11.1380 1.8212 -8.4833 -24.1919 0.0000 0.0000 0.0000 6.5506 18.4687 -38.2624 -0.2258 -3.0588 8.4425 0.3245 -10.8616 -8.4293 -4.9497 13.3269 -40.6048 -6.4715 -6.3786 -29.9486 0.3871 -6.5814 0.5198 1.0859 -3.5554 17.1146 12.0291 -1.9467 -4.9526 -17.4324 2.4963 26.0214 -7.9477 1.6561 9.0766 -0.0000 -0.0000 0.0000 -81.3058 -8.8272 35.2573 19.2457 -29.7229 -5.1521 -0.0000 0.0000 -1.8378 23.1383 -9.8609 -4.1856 -7.1250 0.0000 -0.0000 -2.7398 19.2821 1.6833 -0.0000 -0.0000 0.0000 92.3247 -13.0798 -14.3771 -11.4369 18.9549 -1.9154 0.0000 0.0000 9.5986 -11.4524 -51.7613 9.0411 7.1250 -0.0000 -0.0000 62.5178 -75.1051 -48.1631
20.6842 15.6516 -1.0201 176.8890 -7.1961 -159.5910 0.0000 0.0000 0.0000 -24.3167 -15.2318 -4.1899 1.7641 8.3563 23.8017 0.2447 -11.0936 -11.0321 2.2631 -9.3938 -27.0351 0.0000 0.0000 0.0000 6.9310 18.4142 -38.1944 -0.2724 -3.3572 9.2748 0.2746 -10.1253 -8.1308 -3.7164 11.7732 -34.9343 -6.5007 -6.3740 -30.0816 0.3355 -6.5630 0.4460 1.0447 -3.5512 17.0795 12.0548 -2.0031 -4.7830 -17.3753 2.4542 26.1306 -7.9364 1.6613 9.0730 0.0000 -0.0000 0.0000 -81.3331 -8.2540 35.0842 19.1729 -29.6330 -5.1161 -0.0000 0.0000 -1.7016 23.1235 -9.9511 -4.2204 -7.1250 0.0000 -0.0000 -2.7534 19.1857 1.6976 0.0000 -0.0000 0.0000 92.5232 -13.1286 -14.6935 -11.3772 18.8641 -1.8961 0.0000 0.0000 9.5087 -10.7169 -51.2898 8.4008 7.1250 -0.0000 -0.0000 61.3128 -74.6438 -46.6086
20.7088 15.6507 -1.1934 177.0720 -7.0637 -159.6420 0.0000 0.0000 0.0000 -24.1204 -15.2826 -4.0723 1.9311 8.7211 24.9267 0.2391 -10.6663 -10.7648 2.7424 -10.2659 -29.8422 0.0000 0.0000 0.0000 7.6080 18.2822 -38.2838 -0.3426 -3.7611 10.4055 0.2111 -9.0757 -7.6610 -2.8567 10.4594 -30.4777 -6.2900 -6.3352 -30.2409 0.3743 -6.5888 0.4053 0.9537 -3.5479 17.0910 12.0287 -2.1382 -4.7051 -17.3860 2.2602 26.1248 -7.9483 1.5679 9.0202 -0.0000 -0.0000 0.0000 -81.5098 -7.8347 34.6459 18.9830 -29.3975 -5.0225 -0.0000 0.0000 -1.3519 23.0505 -10.1460 -4.2867 -7.1250 0.0000 -0.0000 -2.8122 18.9815 1.7467 -0.0000 -0.0000 0.0000 92.5925 -13.0499 -14.8839 -11.2716 18.7033 -1.8621 0.0000 0.0000 9.4268 -10.6689 -51.4807 8.3847 7.1250 -0.0000 -0.0000 61.9920 -74.7007 -47.2663
20.7328 15.6545 -1.3584 177.3700 -6.8565 -159.5970 0.0000 0.0000 0.0000 -23.7883 -15.3903 -4.2453 2.1423 9.1564 26.2859 0.2148 -10.1851 -10.2375 3.0411 -10.7613 -31.4791 0.0000 0.0000 0.0000 8.3429 18.3312 -38.5336 -0.4266 -4.1920 11.6175 0.1694 -8.3672 -7.4672 -2.2369 9.3430 -26.8742 -5.9763 -6.2288 -30.4436 0.4667 -6.5698 0.3538 0.8842 -3.5192 17.1032 12.1140 -2.1524 -4.7799 -17.5245 2.1977 25.9842 -8.0161 1.5196 8.9749 0.0000 0.0000 0.0000 -81.6736 -7.5884 34.3660 18.7358 -29.0891 -4.9018 -0.0000 0.0000 -1.0431 23.1040 -10.0384 -4.2529 -7.1250 0.0000 -0.0000 -2.7704 19.0932 1.7138 0.0000 0.0000 0.0000 92.6213 -13.0622 -14.5483 -11.3150 18.7695 -1.8760 0.0000 0.0000 8.8088 -10.9667 -51.9374 8.6746 7.1250 -0.0000 -0.0000 63.4096 -74.9849 -48.8273
20.7584 15.6656 -1.5164 177.6990 -6.5946 -159.5880 0.0000 0.0000 0.0000 -23.3873 -15.4540 -4.6414 2.4141 9.6799 27.9464 0.1761 -9.6774 -9.4816 3.2977 -11.1621 -32.8285 0.0000 0.0000 0.0000 8.9558 18.8048 -38.7829 -0.5343 -4.6838 13.0090 0.1496 -8.1440 -7.6885 -2.6767 10.1523 -29.4715 -5.6719 -6.0577 -30.5709 0.5598 -6.4706 0.2806 0.8632 -3.4582 17.0492 12.0992 -2.3339 -4.6593 -17.6030 1.9441 25.9066 -8.0543 1.3944 8.8773 0.0000 -0.0000 0.0000 -81.8007 -7.4595 34.3516 18.3617 -28.6178 -4.7212 -0.0000 0.0000 -0.8933 23.2244 -9.9459 -4.2387 -7.1250 0.0000 -0.0000 -2.6816 19.1831 1.6534 0.0000 -0.0000 0.0000 92.7011 -12.9366 -14.8368 -11.2428 18.6595 -1.8529 0.0000 0.0000 8.6452 -11.9617 -51.9507 9.4717 7.1250 -0.0000 -0.0000 62.9196 -75.3696 -48.8023
20.7857 15.6812 -1.6728 178.0290 -6.3407 -159.6420 0.0000 0.0000 0.0000 -22.9401 -15.4066 -5.2301 2.7587 10.2937 29.9332 0.1085 -9.2814 -8.3016 2.6641 -10.1303 -29.3998 0.0000 0.0000 0.0000 10.0392 18.4479 -38.5751 -0.5732 -4.8485 13.4771 0.1078 -7.0850 -6.9052 -3.6617 11.6961 -34.6654 -5.4027 -5.8837 -30.6182 0.6403 -6.3562 0.2179 0.8593 -3.3931 16.9721 12.0739 -2.5955 -4.5220 -17.6665 1.5615 25.8136 -8.0915 1.2061 8.7480 -0.0000 0.0000 0.0000 -81.9782 -7.2559 34.1134 18.0074 -28.1666 -4.5527 -0.0000 0.0000 -0.6091 23.2318 -10.0382 -4.2790 -7.1250 0.0000 -0.0000 -2.6796 19.0828 1.6581 -0.0000 0.0000 0.0000 92.7496 -12.3470 -16.4170 -10.8141 18.0028 -1.7180 0.0000 0.0000 9.9952 -12.5942 -51.5289 9.9219 7.1250 -0.0000 -0.0000 61.0352 -75.4542 -47.2203
20.8103 15.6963 -1.8296 178.2180 -5.9386 -159.6830 0.0000 0.0000 0.0000 -22.6978 -15.1812 -5.9807 3.1532 10.9391 32.0747 0.0418 -8.7280 -6.8866 1.7754 -8.3816 -23.8794 0.0000 0.0000 0.0000 10.7208 18.4850 -38.5765 -0.6675 -5.2249 14.5512 0.0679 -6.5837 -7.3969 -1.7999 8.4362 -24.0470 -5.2618 -5.7466 -30.6045 0.6804 -6.2491 0.1104 0.8818 -3.3427 16.8198 12.1884 -2.6304 -4.4859 -17.8071 1.4863 25.6697 -8.1628 1.1628 8.6765 -0.0000 0.0000 0.0000 -82.2036 -6.7751 33.4406 17.6587 -27.7179 -4.3893 -0.0000 -0.0000 0.0346 23.4141 -10.3359 -4.4426 -7.1250 0.0000 -0.0000 -2.5616 18.7454 1.6041 -0.0000 0.0000 0.0000 92.7154 -12.0097 -17.1990 -10.5383 17.5771 -1.6337 0.0000 0.0000 10.7970 -12.1012 -51.4029 9.5126 7.1250 -0.0000 -0.0000 60.8727 -75.2155 -46.8267
20.8327 15.7124 -1.9880 178.4240 -5.5079 -159.8110 0.0000 0.0000 0.0000 -22.4615 -14.7909 -6.8157 3.6104 11.6231 34.4112 -0.0053 -7.9100 -5.4297 1.6135 -8.0098 -22.7437 0.0000 0.0000 0.0000 11.4873 18.4940 -38.1712 -0.7192 -5.4192 15.1080 0.0302 -6.0803 -7.7899 -0.4045 4.0833 -11.3111 -5.1041 -5.6088 -30.5408 0.7565 -6.1499 0.0275 0.9334 -3.2945 16.6792 12.1509 -2.5633 -4.4112 -17.9155 1.6587 25.7004 -8.1852 1.2458 8.7025 0.0000 0.0000 0.0000 -82.4901 -6.3520 32.6612 17.1570 -27.0643 -4.1585 -0.0000 -0.0000 0.8171 23.5180 -10.7573 -4.6438 -7.1250 0.0000 -0.0000 -2.5055 18.2803 1.5947 0.0000 0.0000 0.0000 92.6350 -12.0121 -16.6316 -10.5953 17.6654 -1.6510 0.0000 0.0000 10.1025 -12.7606 -52.2362 10.1504 7.1250 -0.0000 -0.0000 63.5577 -75.7773 -49.8068
20.8564 15.7302 -2.1442 178.7010 -5.3001 -159.9260 0.0000 0.0000 0.0000 -22.0245 -14.4560 -7.9160 4.1621 12.3731 37.0649 -0.0416 -6.9870 -3.8232 1.6990 -8.2087 -23.3497 0.0000 0.0000 0.0000 12.4957 18.1536 -37.4848 -0.7173 -5.4122 15.0881 0.0107 -5.0853 -6.8938 -1.4805 7.6880 -21.7703 -4.8968 -5.5189 -30.5455 0.8648 -6.1201 0.0353 0.9546 -3.2690 16.6848 12.0920 -2.5514 -4.4245 -18.0250 1.7162 25.6857 -8.2112 1.2605 8.7097 0.0000 -0.0000 0.0000 -82.7277 -6.0610 31.9319 16.7590 -26.5389 -3.9790 -0.0000 -0.0000 1.5061 23.0816 -10.6778 -4.5147 -7.1250 0.0000 -0.0000 -2.8101 18.4050 1.7812 0.0000 -0.0000 0.0000 92.6106 -11.9348 -15.6511 -10.7658 17.9283 -1.7031 0.0000 0.0000 9.2111 -13.8686 -53.0358 11.1595 7.1250 -0.0000 -0.0000 66.1811 -76.4595 -52.9119
20.8826 15.7472 -2.2903 179.0000 -5.1529 -159.9940 0.0000 0.0000 0.0000 -21.4661 -14.1091 -9.2424 4.7626 13.1114 39.7870 -0.0623 -5.8544 -1.9498 1.5740 -7.9158 -22.4585 0.0000 0.0000 0.0000 13.4583 17.8616 -37.0777 -0.7387 -5.4906 15.3132 -0.0056 -4.3124 -6.3677 -2.3608 9.5803 -27.6280 -4.6960 -5.4606 -30.5087 0.9629 -6.1361 -0.0014 0.9526 -3.2658 16.6199 12.1418 -2.6640 -4.2931 -18.1069 1.5463 25.5772 -8.2539 1.1785 8.6147 -0.0000 0.0000 0.0000 -82.9284 -5.5190 31.1456 16.5841 -26.3062 -3.9012 -0.0000 -0.0000 2.0408 22.4845 -10.1144 -4.1573 -7.1250 0.0000 -0.0000 -3.2129 19.0620 1.9906 -0.0000 0.0000 0.0000 92.6607 -11.8450 -15.2056 -10.8558 18.0669 -1.7309 0.0000 0.0000 9.3847 -13.4820 -53.3096 10.8822 7.1250 -0.0000 -0.0000 67.4367 -76.3865 -53.9859
20.9136 15.7631 -2.4295 179.2520 -4.8763 -160.1190 0.0000 0.0000 0.0000 -20.9415 -13.5773 -10.6207 5.3751 13.7942 42.4191 -0.0613 -4.6500 0.0546 1.5181 -7.7805 -22.0493 0.0000 0.0000 0.0000 14.2622 17.8016 -36.7551 -0.7863 -5.6608 15.8032 -0.0285 -3.8013 -6.5272 -2.0832 9.0374 -25.9123 -4.6083 -5.3690 -30.3993 1.0240 -6.0598 -0.0019 1.0142 -3.2287 16.5644 12.2270 -2.8066 -4.1266 -18.1408 1.3176 25.4733 -8.2876 1.0764 8.5039 0.0000 0.0000 0.0000 -83.0540 -4.9951 30.5771 16.4562 -26.1352 -3.8447 -0.0000 -0.0000 2.1713 22.5186 -9.8814 -4.0696 -7.1250 0.0000 -0.0000 -3.1814 19.3097 1.9534 0.0000 0.0000 0.0000 92.7298 -11.5085 -15.5031 -10.8088 17.9946 -1.7164 0.0000 0.0000 10.3317 -12.5129 -53.8982 10.1659 7.1250 -0.0000 -0.0000 70.1320 -76.1618 -56.2387
20.9456 15.7761 -2.5729 179.2900 -4.6333 -160.1800 0.0000 0.0000 0.0000 -20.6502 -13.0603 -12.0782 6.0105 14.4386 45.0240 -0.0387 -3.5462 1.9778 1.5542 -7.8682 -22.3145 0.0000 0.0000 0.0000 14.8850 17.4952 -36.3573 -0.8129 -5.7535 16.0708 -0.0702 -2.7128 -6.7563 -2.3347 9.5309 -27.4707 -4.7409 -5.3487 -30.3838 1.0326 -5.9819 0.0506 1.1272 -3.2039 16.6282 12.3026 -2.8648 -4.1188 -18.1641 1.2045 25.4283 -8.3153 1.0219 8.4658 -0.0000 0.0000 0.0000 -83.0807 -4.6796 30.2359 16.2378 -25.8421 -3.7490 -0.0000 -0.0000 2.0471 22.8314 -9.9805 -4.1732 -7.1250 0.0000 -0.0000 -2.9621 19.1779 1.8271 -0.0000 0.0000 0.0000 92.7269 -11.2220 -14.8469 -10.8717 18.0913 -1.7359 0.0000 0.0000 10.2614 -11.7566 -54.5651 9.6241 7.1250 -0.0000 -0.0000 73.0135 -76.0150 -58.7834
20.9728 15.7852 -2.7254 179.3390 -4.5677 -160.1930 0.0000 0.0000 0.0000 -20.3614 -12.6635 -13.4892 6.6486 15.0287 47.5324 0.0061 -2.3337 3.7344 1.2342 -7.0453 -19.8496 0.0000 0.0000 0.0000 15.6183 16.8659 -35.6613 -0.7790 -5.6352 15.7296 -0.1009 -1.7050 -6.8819 -2.6441 10.0953 -29.2858 -4.8032 -5.3753 -30.5005 1.0829 -5.9991 0.0566 1.1991 -3.2184 16.7025 12.2320 -2.9701 -4.0297 -18.1378 1.0900 25.5071 -8.3009 0.9732 8.4543 0.0000 0.0000 0.0000 -83.1938 -4.3174 29.8539 15.9631 -25.4706 -3.6301 -0.0000 -0.0000 2.0672 22.6900 -9.7622 -4.0551 -7.1250 0.0000 -0.0000 -3.0557 19.4243 1.8682 0.0000 0.0000 0.0000 92.6783 -11.4262 -12.7932 -11.2415 18.6575 -1.8524 0.0000 0.0000 8.7388 -11.9687 -55.1321 9.8666 7.1250 -0.0000 -0.0000 75.2572 -76.1896 -61.1134
21.0087 15.8077 -2.8362 179.5790 -4.4325 -160.3410 0.0000 0.0000 0.0000 -19.6960 -12.2456 -15.2650 7.4159 15.6723 50.4301 0.0609 -1.1161 5.2152 1.0045 -6.3777 -17.8842 0.0000 0.0000 0.0000 16.2559 16.8772 -34.8314 -0.7461 -5.5173 15.3901 -0.1409 -0.6227 -7.3453 -4.5284 12.8321 -38.7433 -4.8357 -5.2832 -29.9778 1.1993 -5.9105 -0.0387 1.4239 -3.1903 16.3592 12.1665 -3.1712 -3.8705 -18.1333 0.8507 25.5762 -8.3001 0.8689 8.4026 0.0000 0.0000 0.0000 -83.2910 -3.9120 29.6657 15.7282 -25.1508 -3.5297 -0.0000 -0.0000 2.1133 22.5673 -9.5451 -3.9423 -7.1250 0.0000 -0.0000 -3.1368 19.6676 1.9009 0.0000 0.0000 0.0000 92.7501 -11.5287 -11.4846 -11.5922 19.1902 -1.9662 0.0000 0.0000 7.7700 -12.0877 -55.5832 10.0189 7.1250 -0.0000 -0.0000 77.0885 -76.2923 -62.9903
21.0410 15.8209 -2.9626 179.8190 -4.5723 -160.3460 0.0000 0.0000 0.0000 -19.0549 -12.1587 -16.9466 8.1849 16.2536 53.2258 0.1205 0.0300 6.5459 0.9776 -6.2940 -17.6398 0.0000 0.0000 0.0000 17.0043 16.4519 -34.2287 -0.7286 -5.4539 15.2079 -0.1756 -0.3679 -8.0570 -3.8873 12.0089 -35.7633 -4.8014 -5.2449 -29.8807 1.2976 -5.8865 -0.0224 1.5300 -3.1800 16.3423 12.2758 -3.1829 -3.9923 -18.2411 0.8486 25.6392 -8.3683 0.8670 8.4443 0.0000 0.0000 0.0000 -83.3672 -3.6671 29.5696 15.4863 -24.8192 -3.4275 -0.0000 -0.0000 2.0617 22.5805 -9.5678 -3.9541 -7.1250 0.0000 -0.0000 -3.1280 19.6422 1.8973 0.0000 0.0000 0.0000 92.8809 -11.3454 -10.9095 -11.8338 19.5549 -2.0463 0.0000 0.0000 7.5432 -11.5441 -55.9791 9.6087 7.1250 -0.0000 -0.0000 78.7698 -76.1313 -64.4435
